<svg xmlns="http://www.w3.org/2000/svg" xmlns:xlink="http://www.w3.org/1999/xlink" aria-hidden="true" role="img" class="iconify iconify--logos" width="128" height="128" viewBox="0 0 128 128" fill="none" xmlns="http://www.w3.org/2000/svg">
<path d="M19.7 45.6708C19.66 45.6708 19.62 45.6708 19.58 45.6608C19.52 45.6508 18.02 45.4808 15.47 45.0208C12.69 44.5108 10.86 44.3008 10.84 44.3008C10.24 44.2308 9.79996 43.6908 9.86996 43.0808C9.93996 42.4808 10.49 42.0408 11.09 42.1108C11.17 42.1208 13.01 42.3308 15.87 42.8508C18.34 43.3008 19.82 43.4708 19.83 43.4708C20.43 43.5408 20.87 44.0808 20.8 44.6908C20.73 45.2508 20.25 45.6708 19.7 45.6708ZM10.78 50.0808C10.23 50.0808 9.74996 49.6708 9.68996 49.1108C9.67326 48.967 9.68512 48.8213 9.72487 48.682C9.76462 48.5428 9.83148 48.4127 9.9216 48.2994C10.0117 48.1861 10.1233 48.0916 10.25 48.0215C10.3767 47.9514 10.5161 47.907 10.66 47.8908C10.69 47.8908 13.47 47.5608 14.88 47.3308C16.34 47.1008 19.62 46.5808 19.62 46.5808L19.96 48.7508L15.23 49.5008C13.77 49.7408 11.03 50.0608 10.91 50.0708C10.86 50.0708 10.82 50.0808 10.78 50.0808ZM12.51 54.6808C12.03 54.6808 11.59 54.3708 11.45 53.8808C11.28 53.3008 11.62 52.6908 12.21 52.5208L20.09 50.2708C20.3684 50.1997 20.6636 50.2402 20.9126 50.3836C21.1616 50.527 21.3448 50.762 21.423 51.0385C21.5013 51.315 21.4684 51.6111 21.3315 51.8637C21.1946 52.1163 20.9644 52.3055 20.69 52.3908L12.81 54.6408C12.72 54.6608 12.61 54.6808 12.51 54.6808Z" fill="#888071"/>
<path d="M53.2898 84.4102L42.4498 92.7202C42.4498 92.7202 42.8698 110.04 42.5898 110.74C42.3098 111.44 38.5098 115.81 38.9298 118.34C39.2598 120.31 40.7598 121.01 44.8398 121.16C48.9198 121.31 57.2298 119.47 57.2298 119.47L53.2898 84.4102ZM85.1098 91.0201L77.0898 95.5201C77.0898 95.5201 78.2198 98.9002 78.2198 103.69C78.2198 108.48 77.7998 111.48 77.5198 112.47C77.2398 113.46 74.8898 115.33 75.1298 118.05C75.2398 119.31 76.8198 120.3 79.6298 120.16C82.4398 120.02 86.5298 119.74 86.5298 119.74L90.6098 93.1301L85.1098 91.0201Z" fill="#B85C3E"/>
<path d="M33.2601 27.8101C33.2601 27.8101 31.9501 23.2101 33.0701 15.8901C34.2001 8.5701 36.0701 4.7201 37.8601 4.5301C39.6401 4.3401 43.0201 7.7201 45.6501 11.7601C48.2801 15.8001 50.4401 22.9301 50.4401 22.9301L33.2601 27.8101ZM63.8501 97.2601C63.8501 97.2601 63.9401 105.71 64.1301 109.46C64.3201 113.21 64.1401 121.54 63.3801 122.46C62.2101 123.87 61.0301 123.91 58.5001 124.01C56.9901 124.07 58.9701 114.72 58.9701 114.34C58.9701 113.96 59.0601 91.5301 59.0601 91.5301L63.8501 97.2601Z" fill="#FB8B02"/>
<path d="M38.7896 68.0796C38.7896 68.0796 36.5396 75.2096 37.0996 80.5596C37.6596 85.9096 40.7596 92.6696 43.8596 95.3896C46.9596 98.1096 49.7696 99.5196 50.0496 100.18C50.3296 100.84 51.4596 110.13 51.0796 112.1C50.6996 114.07 47.9796 119.14 48.4496 121.11C48.9196 123.08 50.7796 124.32 55.5796 124.21C61.8196 124.07 61.4896 123.13 61.9596 119.24C62.2796 116.62 61.8696 98.4996 61.8696 98.4996C61.8696 98.4996 65.7196 98.8796 71.1596 98.4996C76.5996 98.1196 83.3596 95.6796 83.3596 95.6796C83.3596 95.6796 87.2096 107.69 85.8896 111.35C84.5796 115.01 82.4196 117.08 82.7896 119.61C83.1696 122.14 86.4496 123.27 90.4896 122.89C94.5296 122.51 97.6196 119.89 97.8096 116.41C97.9996 112.94 97.8996 93.6996 98.4696 92.1996C99.0296 90.6996 101.1 85.5396 100.91 80.3696C100.72 75.1996 100.35 73.1396 100.35 73.1396C100.35 73.1396 105.2 71.2896 109.69 67.8896C113.11 65.2996 115.68 61.8896 117.05 56.8096C119.3 48.4596 116.21 40.1996 110.01 37.3796C104.05 34.6696 98.1796 35.6896 97.9996 40.0096C97.8196 44.3296 101.66 43.3896 104.57 44.5096C107.48 45.6396 110.76 50.7996 107.29 55.8696C103.82 60.9396 97.7196 62.5296 95.8396 62.7196C93.9596 62.9096 90.4896 59.9996 83.2596 59.8096C76.0296 59.6196 65.6196 64.8796 65.3296 64.2196C65.0496 63.5596 75.6496 56.7096 76.3996 47.7996C77.0996 39.5396 75.3696 35.6896 75.3696 35.6896C75.3696 35.6896 74.0596 21.7096 72.1796 15.1396C70.2996 8.5696 67.6996 3.6896 66.0096 3.7896C64.3196 3.8796 58.8796 9.7996 56.9096 12.7096C54.9396 15.6196 52.7796 20.3096 52.7796 20.3096C52.7796 20.3096 44.3796 19.9996 40.6696 21.3396C37.2896 22.5596 33.4396 24.6196 30.9996 28.4696C28.5596 32.3196 27.8096 34.5696 26.6796 35.1296C25.5496 35.6896 20.1996 36.8196 19.7296 37.4796C19.2596 38.1396 18.0396 46.8696 18.3196 48.1796C18.5996 49.4896 18.8196 52.5496 20.3796 54.2796C22.1596 56.2496 27.0896 59.5796 30.9896 62.0696C34.7596 64.4696 38.4196 66.3896 38.7896 68.0796Z" fill="#FFB800"/>
<path d="M73.3799 77.2708C76.8499 77.2208 76.7599 73.0508 76.8099 67.8808C76.8499 63.3608 76.6699 60.7008 76.6699 60.7008C76.6699 60.7008 74.6799 60.9708 72.9199 61.6408C71.1799 62.3008 69.6799 62.9108 69.6799 62.9108V70.1808C69.6699 72.6708 69.9499 77.3208 73.3799 77.2708ZM79.4799 60.0508C79.4799 60.0508 79.4799 64.4108 79.5299 68.1208C79.5799 72.1108 79.1999 76.4308 83.1899 76.3808C86.6199 76.3408 86.6199 71.9708 86.6599 67.0408C86.6799 64.4608 86.7499 60.0508 86.7499 60.0508C86.7499 60.0508 85.0599 59.7208 83.0399 59.7708C81.4499 59.8108 79.4799 60.0508 79.4799 60.0508Z" fill="#FF9B31"/>
<path d="M44.8096 41.0201C44.0796 42.7901 42.5096 45.3201 39.9196 44.6601C38.2596 44.2401 38.1396 40.6701 39.1096 38.5501C40.2596 36.0501 41.7896 34.9201 43.5796 35.1301C45.5496 35.3701 45.7396 38.7501 44.8096 41.0201ZM27.6696 40.4801C27.6196 39.3501 24.7096 38.5601 22.4596 37.7101C20.5496 37.0001 19.4996 36.9601 18.9896 37.4301C18.4796 37.9001 17.8596 39.1201 17.5796 41.0001C17.2996 42.8801 17.3996 46.0601 17.8596 48.0401C18.3296 50.0601 19.0796 52.5901 22.4096 53.9101C25.2696 55.0401 26.9596 53.4901 28.1796 52.6401C29.7296 51.5701 29.0596 49.0301 26.8696 50.3401C25.2296 51.3301 24.0996 51.6101 22.8296 50.6701C21.0896 49.3801 20.6696 45.5601 20.8096 45.2301C21.4196 43.8001 23.8596 43.4501 24.8496 43.0701C25.8396 42.6901 27.7196 41.4701 27.6696 40.4801Z" fill="#2C312C"/>
<path d="M47.3402 50.4505H47.2602C47.2302 50.4505 44.0702 50.2205 42.1002 50.1705L36.4702 50.0305C36.4702 50.0305 35.2902 50.1305 35.2902 48.9705C35.2902 47.7405 36.5202 47.9305 36.5202 47.9305L42.1502 48.0705C44.1702 48.1205 47.2802 48.3405 47.4102 48.3505C47.9902 48.3905 48.4202 48.9005 48.3802 49.4705C48.3402 50.0305 47.8802 50.4505 47.3402 50.4505ZM45.5502 57.3005C45.4002 57.3005 45.2402 57.2705 45.1002 57.2005C45.0802 57.1905 42.5902 56.0005 40.3402 55.2305C38.0002 54.4405 35.3802 53.5905 35.3802 53.5905C34.8302 53.4105 34.5202 52.8205 34.7002 52.2705C34.8802 51.7205 35.4702 51.4105 36.0202 51.5905C36.0202 51.5905 38.6602 52.4405 41.0102 53.2405C43.3902 54.0505 45.9002 55.2505 46.0102 55.3105C46.5302 55.5605 46.7502 56.1905 46.5002 56.7105C46.3202 57.0805 45.9402 57.3005 45.5502 57.3005ZM40.4402 61.2005C40.2402 61.2005 40.0302 61.1405 39.8502 61.0205C39.8302 61.0105 38.0702 59.8105 36.8902 59.0805C35.6602 58.3305 33.4502 56.9105 33.4502 56.9105C33.4502 56.9105 32.4602 56.3305 33.1002 55.4105C33.7402 54.4905 34.5802 55.1305 34.5802 55.1305C34.5802 55.1305 36.7802 56.5305 37.9902 57.2805C39.2202 58.0305 40.9602 59.2305 41.0402 59.2805C41.5202 59.6105 41.6402 60.2605 41.3102 60.7405C41.1002 61.0405 40.7702 61.2005 40.4402 61.2005Z" fill="#888071"/>
<path d="M64.3504 12.33C63.8704 12.16 60.7604 15.78 59.2104 19.37C57.6604 22.96 57.1004 24.93 57.2404 25.56C57.3004 25.84 59.0904 27.39 61.7404 29.5C64.4904 31.68 66.2404 33.02 67.0204 32.95C67.7904 32.88 68.0104 26.9 67.3704 21.48C66.7304 16.06 65.1204 12.61 64.3504 12.33Z" fill="#FED0AB"/>
</svg>
